<svg xmlns="http://www.w3.org/2000/svg" width="19.81" height="35.69" viewBox="0 0 19.81 35.69">
  <metadata><?xpacket begin="﻿" id="W5M0MpCehiHzreSzNTczkc9d"?>
<x:xmpmeta xmlns:x="adobe:ns:meta/" x:xmptk="Adobe XMP Core 5.6-c138 79.159824, 2016/09/14-01:09:01        ">
   <rdf:RDF xmlns:rdf="http://www.w3.org/1999/02/22-rdf-syntax-ns#">
      <rdf:Description rdf:about=""/>
   </rdf:RDF>
</x:xmpmeta>
                                                                                                    
                                                                                                    
                                                                                                    
                                                                                                    
                                                                                                    
                                                                                                    
                                                                                                    
                                                                                                    
                                                                                                    
                                                                                                    
                                                                                                    
                                                                                                    
                                                                                                    
                                                                                                    
                                                                                                    
                                                                                                    
                                                                                                    
                                                                                                    
                                                                                                    
                                                                                                    
                           
<?xpacket end="w"?></metadata>
<defs>
    <style>
      .cls-1 {
        fill: #fa3a38;
        fill-rule: evenodd;
      }
    </style>
  </defs>
  <path id="_" data-name="$" class="cls-1" d="M1514.22,3596.96v3.1a8.589,8.589,0,0,0-4.45,1.84,8.362,8.362,0,0,0-2.79,6.39c0,3.82,2.07,6.51,6.47,8.04,5.04,1.75,6.34,2.2,6.34,4.41,0,0.85-.36,3.23-3.77,3.23-4.05,0-4.59-3.32-4.77-4.45l-5.26,1.4c0.59,2.29,1.8,6.92,8.23,7.68v4.05h3.37v-4.05a9.069,9.069,0,0,0,5.57-2.25,8.177,8.177,0,0,0,2.65-6.33c0-5.04-3.23-7.01-7.28-8.45-4.31-1.58-5.61-2.07-5.61-4.09a2.969,2.969,0,0,1,3.14-3.01c2.7,0,3.6,2.24,4.23,3.91l4.63-1.89a8.3,8.3,0,0,0-7.33-6.43v-3.1h-3.37Z" transform="translate(-1506 -3596.97)"/>
</svg>
