<svg xmlns="http://www.w3.org/2000/svg" width="16.4" height="13.31" viewBox="0 0 16.4 13.31">
  <metadata><?xpacket begin="﻿" id="W5M0MpCehiHzreSzNTczkc9d"?>
<x:xmpmeta xmlns:x="adobe:ns:meta/" x:xmptk="Adobe XMP Core 5.6-c138 79.159824, 2016/09/14-01:09:01        ">
   <rdf:RDF xmlns:rdf="http://www.w3.org/1999/02/22-rdf-syntax-ns#">
      <rdf:Description rdf:about=""/>
   </rdf:RDF>
</x:xmpmeta>
                                                                                                    
                                                                                                    
                                                                                                    
                                                                                                    
                                                                                                    
                                                                                                    
                                                                                                    
                                                                                                    
                                                                                                    
                                                                                                    
                                                                                                    
                                                                                                    
                                                                                                    
                                                                                                    
                                                                                                    
                                                                                                    
                                                                                                    
                                                                                                    
                                                                                                    
                                                                                                    
                           
<?xpacket end="w"?></metadata>
<defs>
    <style>
      .cls-1 {
        fill: #3c3c3c;
        fill-rule: evenodd;
      }
    </style>
  </defs>
  <path id="_TWITTER" class="cls-1" d="M4310.55,1771.79h0m-5.04-1.58a3.361,3.361,0,0,0-3.36,3.36,3.865,3.865,0,0,0,.08.77,9.546,9.546,0,0,1-6.92-3.51,3.314,3.314,0,0,0-.46,1.69,3.359,3.359,0,0,0,1.5,2.79,3.147,3.147,0,0,1-1.52-.42v0.05a3.349,3.349,0,0,0,2.69,3.29,3.223,3.223,0,0,1-.88.12,3.387,3.387,0,0,1-.64-0.06,3.371,3.371,0,0,0,3.14,2.34,6.751,6.751,0,0,1-4.17,1.44,7.012,7.012,0,0,1-.8-0.05,9.555,9.555,0,0,0,14.71-8.06c0-.14,0-0.29-0.01-0.43a6.942,6.942,0,0,0,1.68-1.74,7.247,7.247,0,0,1-1.93.53,3.464,3.464,0,0,0,1.48-1.86,6.823,6.823,0,0,1-2.14.81,3.35,3.35,0,0,0-2.45-1.06" transform="translate(-4294.16 -1770.22)"/>
</svg>
