<?xml version="1.0" standalone="no"?>
<!DOCTYPE svg PUBLIC "-//W3C//DTD SVG 20010904//EN"
 "http://www.w3.org/TR/2001/REC-SVG-20010904/DTD/svg10.dtd">
<svg version="1.0" xmlns="http://www.w3.org/2000/svg"
 width="556.000000pt" height="556.000000pt" viewBox="0 0 556.000000 556.000000"
 preserveAspectRatio="xMidYMid meet">
<metadata>
Created by potrace 1.11, written by Peter Selinger 2001-2013
</metadata>
<g transform="translate(0.000000,556.000000) scale(0.100000,-0.100000)"
fill="#000000" stroke="none">
<path d="M1441 5041 c-7 -5 -29 -6 -48 -4 -26 3 -42 -2 -58 -17 -12 -11 -25
-17 -28 -13 -4 3 -7 1 -7 -4 0 -7 -12 -9 -28 -7 -18 3 -34 -1 -41 -10 -7 -8
-20 -12 -28 -9 -11 4 -14 2 -9 -5 4 -7 1 -12 -8 -12 -9 0 -16 6 -16 13 0 9 -2
9 -9 -1 -4 -7 -24 -14 -44 -15 -19 -1 -35 -4 -35 -7 2 -33 -3 -40 -22 -30 -12
7 -20 7 -20 1 0 -5 -8 -8 -17 -7 -10 2 -25 -3 -33 -12 -13 -14 -12 -15 5 -8
15 5 17 4 9 -4 -7 -7 -28 -13 -48 -14 -37 -3 -63 -16 -31 -16 18 0 18 0 0 -14
-10 -7 -27 -11 -37 -8 -20 5 -24 -8 -7 -25 14 -14 -8 -13 -30 1 -10 6 -12 5
-7 -2 6 -11 -12 -17 -37 -13 -4 1 -3 -8 3 -19 9 -16 8 -19 -6 -13 -11 4 -15 2
-11 -4 4 -6 -4 -8 -21 -6 -17 3 -22 1 -15 -4 8 -6 9 -14 3 -23 -6 -8 -10 -11
-10 -6 0 5 -9 1 -20 -9 -16 -14 -17 -20 -8 -27 9 -5 5 -8 -12 -9 -14 -1 -28
-1 -31 -1 -3 1 -5 -10 -3 -24 1 -13 -2 -22 -7 -18 -5 3 -7 9 -4 14 3 5 0 12
-6 16 -7 4 -9 3 -5 -4 3 -6 2 -13 -4 -17 -5 -3 -10 -15 -10 -26 0 -11 -7 -19
-17 -19 -10 0 -27 -8 -38 -17 -16 -13 -17 -15 -2 -10 11 4 17 1 17 -7 0 -8 -8
-13 -17 -12 -12 1 -18 -6 -18 -19 0 -13 -7 -20 -19 -20 -11 0 -21 -6 -24 -14
-3 -9 0 -11 8 -6 7 4 5 -3 -4 -17 -9 -14 -14 -27 -11 -30 3 -2 -2 -5 -9 -5
-11 0 -12 5 -6 17 6 11 5 17 -3 17 -7 0 -13 -17 -14 -40 -1 -22 -7 -45 -14
-51 -8 -7 -10 -7 -6 0 3 6 0 11 -7 11 -8 0 -13 -12 -14 -31 0 -52 -1 -55 -22
-51 -16 3 -19 -1 -16 -18 4 -26 -18 -87 -32 -87 -5 0 -9 -16 -10 -35 -2 -42
-10 -58 -26 -52 -8 3 -12 -14 -11 -59 0 -35 -3 -64 -7 -64 -4 0 -5 -12 -2 -27
3 -21 2 -24 -6 -13 -8 12 -10 13 -10 1 0 -8 -3 -12 -6 -8 -3 3 -2 12 2 19 9
15 14 61 6 53 -11 -10 -14 -40 -18 -145 -2 -58 -4 -114 -5 -125 0 -11 0 -58 1
-105 1 -47 0 -89 -1 -95 -1 -5 0 -14 1 -20 1 -5 3 -56 4 -112 1 -56 5 -105 9
-109 4 -4 7 -3 8 2 0 5 2 19 5 32 2 12 -1 22 -6 22 -6 0 -10 5 -10 11 0 8 4 8
14 0 18 -15 15 -69 -5 -83 -11 -8 -11 -9 4 -4 18 6 19 2 19 -49 0 -16 5 -36
10 -42 7 -9 7 -13 0 -13 -5 0 -8 -9 -5 -20 3 -11 9 -20 14 -20 5 0 6 6 3 14
-3 8 -2 16 3 19 4 3 9 -6 9 -19 1 -13 -3 -24 -10 -24 -6 0 -5 -4 3 -9 8 -5 14
-28 16 -55 1 -25 5 -49 10 -53 4 -5 5 -2 1 5 -4 6 -2 12 3 12 6 0 11 -5 11
-11 0 -5 3 -8 8 -6 4 3 7 -15 8 -39 0 -25 6 -50 12 -56 8 -8 10 -4 6 18 -3 16
-2 26 1 22 8 -8 13 -34 14 -70 1 -21 5 -26 19 -22 15 5 14 4 -2 -6 -17 -12
-17 -13 6 -29 17 -12 23 -25 23 -53 0 -29 2 -34 13 -26 9 8 10 13 2 18 -8 5
-7 9 3 13 11 4 14 -1 12 -19 -1 -13 1 -27 6 -29 4 -3 6 -14 4 -25 -3 -17 -1
-18 14 -11 19 11 19 9 23 -49 1 -21 5 -27 13 -20 6 5 16 5 25 0 11 -7 11 -10
2 -10 -10 0 -10 -5 -1 -22 7 -13 12 -24 11 -25 -7 -10 0 -23 8 -18 5 3 10 11
10 16 0 6 -5 7 -12 3 -7 -4 -8 -3 -4 5 10 15 29 3 22 -15 -3 -8 -1 -14 5 -14
5 0 9 -6 8 -12 -3 -29 2 -36 23 -30 13 3 19 1 15 -6 -4 -5 -3 -21 2 -34 6 -12
10 -18 10 -11 1 7 7 10 15 7 8 -3 12 -13 9 -25 -5 -16 -1 -20 13 -17 13 2 19
-3 18 -14 -1 -10 3 -18 8 -18 5 0 7 -9 3 -19 -3 -11 0 -23 6 -27 8 -4 9 -3 5
4 -4 7 -2 12 4 12 6 0 8 6 4 13 -4 6 -3 8 1 4 5 -4 10 -14 12 -22 2 -8 5 -23
7 -32 3 -10 5 -20 5 -23 1 -3 5 2 11 10 9 15 8 17 25 -36 4 -14 8 -14 22 -3
15 12 16 12 10 -3 -4 -11 -2 -18 6 -18 8 0 6 -4 -3 -10 -13 -8 -12 -10 3 -10
12 0 16 -4 11 -12 -5 -8 0 -7 11 2 10 8 16 10 12 3 -9 -14 21 -45 35 -37 6 4
8 3 5 -2 -7 -12 8 -38 23 -40 5 -1 13 -2 18 -3 4 0 7 -16 7 -33 0 -27 4 -33
21 -32 16 1 20 -4 18 -22 -2 -21 0 -23 19 -12 20 10 21 10 9 -5 -12 -14 -10
-15 15 -11 26 5 27 4 9 -9 -18 -13 -17 -15 15 -27 19 -7 37 -12 40 -12 4 1 5
-8 2 -18 -3 -12 0 -20 7 -20 7 0 10 -6 7 -14 -4 -10 0 -14 14 -11 18 4 23 -4
20 -35 -2 -12 0 -13 7 -1 8 11 15 9 40 -9 17 -12 28 -28 26 -35 -3 -7 0 -16 5
-20 6 -3 9 -11 6 -16 -3 -5 0 -6 8 -3 7 2 23 -3 33 -13 11 -10 14 -14 8 -10
-9 6 -11 3 -8 -10 4 -14 13 -18 35 -17 16 1 31 -2 34 -6 3 -5 -4 -7 -15 -5
-11 2 -18 0 -15 -6 4 -5 13 -9 21 -9 8 0 14 -4 14 -10 0 -5 3 -9 8 -9 21 4 31
-3 26 -16 -4 -8 -1 -16 5 -16 6 -1 17 -2 24 -3 6 0 12 -6 12 -13 0 -6 3 -15 7
-18 4 -4 3 -17 -3 -29 -9 -18 -8 -18 9 3 16 19 20 21 25 8 3 -9 1 -18 -6 -21
-7 -3 -6 -5 3 -5 29 2 40 -1 40 -12 0 -5 -6 -7 -12 -3 -8 4 -10 3 -5 -2 5 -5
12 -10 15 -10 29 -6 52 -18 56 -31 4 -9 2 -12 -7 -7 -8 5 -7 2 2 -9 8 -10 16
-15 19 -12 3 3 11 0 19 -6 11 -9 11 -15 1 -27 -11 -13 -10 -14 7 -9 11 3 31
-1 45 -9 14 -9 17 -13 8 -10 -10 3 -18 1 -18 -4 0 -6 5 -11 10 -11 6 -1 16 -2
23 -3 6 -1 11 -7 9 -14 -3 -15 45 -35 61 -25 7 3 9 3 5 -2 -4 -4 -2 -15 5 -23
10 -13 9 -14 -13 -3 -24 11 -24 11 -6 -3 11 -9 24 -16 29 -16 4 0 6 -4 2 -9
-3 -5 0 -13 6 -17 8 -4 9 -3 5 4 -4 7 -2 12 4 12 6 0 8 6 4 13 -4 7 -3 9 2 4
5 -5 10 -13 10 -18 1 -5 2 -13 3 -18 0 -6 9 -8 20 -6 14 2 17 -2 15 -20 -2
-18 2 -23 17 -20 19 4 46 -29 41 -50 -1 -5 5 -1 13 9 14 19 15 19 15 -8 0 -15
4 -25 9 -22 4 3 17 -1 27 -9 15 -11 16 -15 4 -15 -11 0 -9 -4 5 -13 11 -6 25
-12 30 -12 6 0 9 -12 8 -25 -1 -14 1 -19 3 -13 4 9 11 10 23 3 10 -5 21 -7 23
-4 3 2 11 -2 18 -11 8 -10 9 -15 1 -15 -6 0 -11 5 -11 11 0 5 -5 7 -10 4 -15
-9 -2 -25 21 -25 12 0 17 -4 13 -11 -4 -8 -1 -8 13 -1 15 9 20 8 20 -3 0 -8
-4 -12 -8 -9 -4 2 -10 1 -13 -4 -3 -5 0 -9 7 -10 36 -3 52 -11 51 -26 -2 -16
8 -20 35 -17 7 2 10 -2 6 -8 -3 -6 -1 -11 4 -11 6 0 10 -6 8 -13 -1 -7 7 -11
20 -9 16 2 21 -2 18 -15 -4 -26 5 -36 21 -22 11 9 14 8 15 -7 1 -11 1 -21 1
-24 0 -3 8 -7 19 -8 10 -1 27 -3 37 -4 10 -1 19 -8 19 -15 0 -9 -6 -9 -21 -2
-19 9 -19 8 2 -10 12 -11 31 -18 41 -16 14 3 17 -1 14 -16 -5 -17 5 -24 30
-20 5 1 11 -8 14 -19 3 -11 10 -20 15 -20 5 0 6 -4 3 -10 -4 -6 1 -7 11 -3 14
5 16 3 11 -11 -5 -14 -3 -17 8 -12 8 3 15 0 15 -7 0 -9 2 -9 8 0 6 10 12 10
28 -2 16 -13 16 -14 2 -9 -10 3 -18 1 -18 -5 0 -10 6 -12 26 -10 4 0 12 -10
18 -23 6 -13 18 -23 26 -23 9 0 14 -8 12 -20 -3 -20 -3 -20 11 -1 13 18 14 18
25 -12 6 -16 7 -34 4 -38 -4 -4 -1 -4 6 0 7 4 10 11 8 15 -3 4 1 8 9 8 10 0
11 -5 4 -19 -6 -12 -6 -17 0 -16 5 2 17 -6 26 -17 14 -17 16 -17 11 -2 -8 27
3 20 14 -8 8 -20 14 -24 27 -17 10 5 25 7 33 5 10 -3 9 0 -2 7 -10 6 -18 15
-18 20 0 6 8 10 18 10 14 0 15 -2 2 -10 -10 -7 -11 -10 -2 -10 7 0 15 7 18 15
4 8 10 13 14 10 5 -3 6 4 3 15 -3 12 0 20 6 20 7 0 10 -4 6 -9 -3 -5 0 -13 6
-17 7 -4 9 -3 5 4 -3 6 -2 13 3 17 5 3 8 13 6 23 -2 15 4 18 33 18 26 0 36 4
38 17 1 9 -3 17 -9 17 -7 0 -6 4 2 9 9 6 22 6 32 0 11 -6 20 -5 24 1 3 5 1 10
-5 10 -15 0 -7 25 8 26 7 1 17 2 22 3 6 0 10 6 10 12 0 5 -6 7 -13 3 -8 -5 -8
-3 2 9 14 18 36 13 25 -6 -4 -7 -3 -8 2 -4 5 5 9 14 9 20 1 7 6 11 12 10 7 -2
10 6 8 16 -3 17 4 21 50 22 18 0 19 1 3 10 -26 15 -23 32 3 18 12 -6 19 -7 15
-1 -3 5 3 12 14 15 11 3 20 0 20 -6 0 -6 3 -8 6 -5 3 4 0 16 -6 28 -7 13 -8
20 -2 16 6 -3 13 -2 17 3 3 6 12 8 20 4 10 -3 15 2 15 16 0 15 6 21 21 21 16
0 20 5 16 20 -5 19 3 24 29 21 7 -1 14 8 17 19 3 11 9 20 14 19 24 -4 35 2 29
17 -5 13 -2 15 14 11 11 -3 18 -1 14 4 -4 8 15 13 37 11 3 -1 6 6 6 13 0 10
-4 12 -12 5 -9 -7 -14 -6 -18 3 -4 12 6 15 55 18 11 0 15 7 13 20 -3 16 1 19
18 17 13 -2 21 2 20 9 -2 7 2 13 8 13 5 0 7 5 3 12 -5 8 -2 9 10 5 12 -5 19 0
26 18 5 14 15 24 22 23 7 -2 13 6 13 17 0 13 7 20 20 21 22 1 65 21 65 30 0 2
-8 0 -18 -5 -14 -7 -19 -6 -19 2 0 11 17 16 63 20 6 0 11 6 11 14 0 9 -4 10
-12 3 -9 -7 -14 -6 -18 3 -3 7 3 13 12 14 54 4 60 7 50 25 -7 13 -6 16 5 12 8
-3 17 0 21 5 3 6 11 9 16 5 6 -3 10 0 8 7 -3 29 2 37 20 32 13 -3 20 2 24 17
3 12 10 19 16 15 6 -3 11 -1 11 5 0 6 4 9 9 6 5 -4 7 3 4 14 -4 15 -1 18 16
15 20 -4 26 5 21 34 -1 8 4 11 13 8 7 -3 20 -1 28 4 12 8 12 10 -1 19 -10 7
-11 10 -2 11 12 2 26 5 40 9 4 1 11 2 15 1 4 -1 3 8 -4 20 -6 12 -7 19 -2 16
5 -3 15 -2 23 3 8 5 23 4 34 -1 18 -9 18 -8 -2 8 -13 10 -20 22 -16 26 4 4 13
2 21 -5 11 -9 13 -8 11 2 -4 16 61 62 75 53 6 -3 7 -1 3 5 -8 14 23 64 35 56
5 -3 12 2 15 11 4 9 13 14 21 11 8 -3 12 -2 9 3 -3 4 3 16 14 26 16 14 20 15
21 4 1 -8 4 0 8 16 5 22 12 29 25 27 15 -3 18 1 13 18 -4 16 -2 20 9 16 8 -3
14 -1 14 5 0 6 5 7 11 4 6 -4 9 0 7 11 -2 13 3 19 17 19 13 0 21 8 23 23 3 16
10 22 30 22 22 0 24 2 11 12 -8 7 -12 12 -10 11 2 -2 10 5 17 15 9 11 13 13
14 4 0 -10 3 -10 14 0 9 8 11 17 5 24 -6 8 -4 14 6 18 11 4 14 2 9 -7 -5 -8
-2 -7 9 2 9 7 17 20 17 28 0 7 7 13 16 11 10 -2 18 5 19 15 2 11 -1 15 -8 10
-7 -4 -6 1 2 11 8 10 17 13 20 7 9 -14 28 0 30 22 1 9 2 25 3 36 1 11 8 17 15
14 9 -4 10 -9 3 -18 -7 -8 -6 -12 4 -12 8 0 13 7 11 16 -1 9 1 21 5 26 5 6 10
14 12 20 1 5 9 9 16 7 6 -2 13 4 13 13 1 8 2 21 3 27 0 7 10 13 21 13 14 0 19
6 17 18 -2 13 2 17 15 15 10 -2 18 2 19 7 0 6 4 18 9 28 6 14 10 15 21 6 14
-11 18 3 17 49 -1 10 2 10 13 1 16 -13 23 -1 28 47 2 19 9 28 19 26 8 -1 17 7
20 19 4 15 11 20 21 16 10 -4 16 -1 16 9 0 8 -5 12 -11 8 -6 -3 -4 5 5 18 9
14 13 28 9 33 -5 4 -2 5 5 1 7 -4 10 -11 8 -15 -3 -4 1 -8 8 -8 7 0 13 5 13
11 0 6 1 26 1 45 2 33 3 34 18 15 8 -10 13 -14 10 -7 -4 6 -2 14 4 18 6 4 8
11 5 16 -4 5 -1 9 5 9 7 0 9 8 5 20 -5 15 -3 18 9 14 9 -3 13 -11 9 -17 -4 -6
-1 -7 6 -3 9 6 8 13 -5 27 -16 18 -16 19 -1 13 13 -5 17 0 18 22 1 16 1 32 1
36 -1 3 5 9 13 12 16 6 16 -15 0 -26 -12 -9 0 -22 14 -14 5 4 9 24 8 46 -2 29
1 39 10 36 7 -3 13 -1 13 5 0 6 4 8 9 5 5 -3 9 0 8 7 -1 39 4 67 14 67 5 0 8
-4 4 -9 -3 -5 0 -13 6 -17 7 -4 9 -3 5 4 -3 6 -2 13 4 17 14 9 1 27 -16 21 -8
-3 -11 0 -8 9 3 8 12 11 21 8 10 -4 14 0 13 13 -4 35 0 43 21 39 17 -4 19 -2
9 10 -15 18 -24 20 -14 3 4 -7 3 -8 -4 -4 -12 7 -5 36 8 36 5 0 11 -6 14 -12
3 -7 3 -1 1 15 -2 15 0 27 5 27 5 0 7 7 3 15 -3 9 1 23 10 33 23 26 29 56 32
156 1 50 4 93 5 96 1 3 2 8 1 12 0 4 7 4 16 1 14 -6 14 -7 0 -18 -13 -9 -14
-14 -4 -25 7 -7 7 -10 1 -7 -6 3 -11 0 -11 -7 0 -7 6 -13 13 -13 6 0 11 7 9
16 -1 9 2 24 6 33 5 9 6 19 1 22 -8 5 -7 119 2 142 3 8 2 14 -2 14 -4 0 -7 38
-7 85 0 47 4 85 8 85 5 0 5 5 2 10 -9 14 -10 114 -1 128 3 6 2 13 -3 17 -6 3
-8 12 -4 21 3 8 -2 21 -12 28 -14 10 -15 15 -5 21 9 5 11 4 6 -3 -4 -7 -3 -12
3 -12 11 0 9 54 -2 58 -17 5 -19 1 -6 -15 8 -9 9 -14 2 -10 -6 4 -13 1 -16 -5
-2 -7 -3 5 -2 27 1 22 -2 53 -6 69 -5 17 -5 34 0 40 9 11 -9 46 -24 46 -4 0
-2 -7 5 -15 11 -13 11 -18 0 -28 -10 -10 -12 -9 -7 5 3 9 3 19 -1 23 -4 4 -7
28 -7 53 -1 39 -5 49 -24 58 -16 8 -19 13 -9 17 9 4 10 6 1 6 -7 1 -13 11 -13
24 0 12 -5 29 -10 37 -8 13 -10 12 -10 -4 0 -30 -9 -14 -16 30 -6 39 -23 80
-24 57 0 -7 -6 -10 -14 -7 -7 3 -12 16 -10 29 1 14 -2 27 -7 31 -5 3 -7 10 -3
15 3 5 2 9 -3 8 -22 -4 -32 3 -28 20 2 14 -1 18 -10 15 -15 -6 -35 24 -28 42
2 7 -7 10 -24 8 -15 -2 -22 -1 -15 2 10 5 10 10 -4 25 -9 10 -21 16 -27 12 -6
-4 -8 2 -5 15 4 14 2 20 -4 16 -6 -4 -8 2 -3 17 7 23 7 23 -8 4 -15 -20 -16
-19 -27 10 -7 17 -14 25 -17 17 -8 -22 -32 6 -25 30 3 14 1 19 -6 14 -7 -4
-20 -2 -29 3 -11 6 -13 11 -5 11 23 0 2 20 -22 20 -16 0 -23 5 -22 17 1 19
-43 35 -61 21 -9 -7 -11 -2 -7 18 3 16 2 25 -2 21 -4 -4 -13 -2 -21 4 -9 9
-13 8 -13 0 0 -8 -6 -8 -20 1 -11 7 -20 17 -20 22 0 4 6 3 14 -3 11 -9 15 -8
20 4 3 9 2 13 -4 10 -5 -3 -18 -1 -29 5 -13 6 -22 6 -26 0 -3 -5 -12 -7 -21
-3 -11 4 -12 9 -4 18 8 10 8 15 -1 20 -6 4 -15 2 -19 -5 -5 -9 -9 -8 -13 2 -3
10 -17 14 -44 12 -26 -2 -33 -1 -23 6 8 5 18 6 24 3 5 -3 6 -1 3 4 -4 6 -16
13 -27 16 -13 3 -18 1 -13 -6 5 -9 3 -9 -8 0 -12 10 -42 18 -82 22 -4 1 -6 4
-6 9 3 20 -3 23 -18 11 -11 -9 -14 -10 -9 -2 5 10 -5 12 -38 10 -41 -2 -45 -1
-42 18 4 19 -1 20 -73 20 -42 0 -96 2 -121 5 -25 3 -58 3 -75 0 -16 -3 -44 -3
-62 1 -18 4 -34 4 -37 2 -3 -3 -48 -6 -100 -7 -67 -1 -99 -5 -108 -15 -9 -10
-10 -12 -1 -7 9 5 11 2 6 -9 -3 -10 -8 -12 -12 -6 -4 6 -20 7 -43 2 -20 -5
-52 -7 -72 -6 -38 2 -44 -3 -24 -23 15 -15 3 -16 -22 -2 -16 8 -18 7 -14 -4 5
-12 -1 -14 -26 -11 -23 3 -30 0 -27 -9 3 -7 1 -19 -4 -27 -8 -11 -9 -10 -7 5
2 10 -3 21 -11 24 -8 3 -11 0 -7 -6 9 -15 -10 -24 -50 -24 -19 0 -34 -4 -34
-9 0 -4 7 -5 17 -2 10 4 14 2 10 -5 -8 -12 -70 -34 -85 -30 -5 2 -10 -1 -11
-7 -1 -5 3 -10 8 -10 5 0 13 -3 17 -7 3 -4 -3 -6 -15 -3 -11 2 -21 0 -21 -4 0
-5 -12 -6 -27 -3 -24 4 -26 3 -16 -10 17 -19 4 -31 -15 -15 -13 9 -14 9 -8 0
7 -13 0 -16 -36 -16 -20 0 -24 -12 -8 -22 6 -3 10 -1 10 5 0 6 5 8 11 4 8 -4
7 -9 -2 -15 -7 -4 -17 -5 -21 -3 -4 3 -8 1 -8 -5 0 -5 -9 -8 -20 -6 -11 2 -22
0 -25 -6 -4 -5 -1 -9 4 -9 6 0 11 -4 11 -10 0 -5 -12 -10 -26 -10 -21 0 -25
-4 -21 -20 5 -19 -3 -24 -30 -21 -6 1 -14 -3 -18 -9 -3 -5 -1 -10 5 -10 6 0 8
-4 5 -10 -3 -5 -16 -10 -29 -10 -17 0 -22 -6 -22 -22 1 -17 -4 -22 -18 -20
-11 2 -15 -1 -11 -7 3 -6 1 -11 -4 -11 -6 0 -10 -6 -8 -12 1 -8 -6 -12 -16
-10 -13 2 -17 -2 -15 -15 2 -10 -2 -17 -9 -16 -7 2 -13 -1 -13 -7 0 -5 -7 -7
-16 -3 -14 5 -15 3 -5 -15 7 -14 8 -23 1 -27 -5 -3 -10 -2 -10 4 0 6 -7 8 -15
5 -9 -4 -14 -14 -13 -23 2 -10 -4 -16 -17 -16 -13 0 -20 6 -19 17 1 11 -5 15
-17 13 -11 -2 -20 0 -20 6 -1 5 -2 15 -3 22 -1 6 -8 11 -15 9 -8 -2 -11 3 -8
12 4 11 1 13 -10 9 -10 -4 -14 -2 -10 4 8 13 -20 26 -35 17 -5 -3 -9 0 -7 7 3
24 -2 55 -7 42 -8 -19 -33 -4 -29 18 2 10 0 21 -6 24 -5 4 -9 1 -9 -6 0 -8 -4
-8 -15 1 -8 7 -12 16 -9 21 3 5 -9 12 -25 15 -25 5 -29 9 -20 20 9 11 5 15
-19 20 -17 4 -31 9 -30 13 2 19 -3 31 -11 26 -11 -6 -34 29 -24 38 3 4 -4 5
-15 2 -12 -2 -24 1 -27 6 -4 5 -10 7 -15 4 -11 -7 -32 30 -22 40 4 4 -4 2 -16
-4 -13 -7 -26 -10 -30 -7 -3 3 -2 6 2 6 4 0 2 9 -4 20 -6 11 -15 18 -20 15 -5
-3 -11 -1 -15 4 -3 5 -14 8 -25 6 -22 -4 -26 5 -10 21 7 7 0 11 -22 12 -50 1
-98 9 -106 16 -3 4 5 5 19 3 15 -3 26 0 26 6 0 7 -16 13 -36 14 -56 4 -72 8
-81 23 -4 7 -25 15 -47 17 -108 9 -129 9 -142 -1 -11 -8 -13 -8 -7 1 4 7 16
18 28 24 15 8 19 8 14 0 -4 -6 -3 -11 2 -11 6 0 12 6 15 13 3 8 -6 12 -29 13
-20 0 -31 -3 -27 -9 4 -6 1 -7 -8 -1 -8 5 -25 9 -39 10 -14 1 -41 3 -60 4 -19
1 -39 1 -45 0 -21 -4 -227 0 -234 4 -4 3 -13 1 -20 -3z m-78 -18 c-7 -2 -13
-9 -13 -14 0 -6 5 -7 12 -3 7 4 8 3 4 -4 -4 -6 -13 -9 -22 -5 -11 4 -12 9 -3
19 6 8 17 14 23 13 7 0 6 -2 -1 -6z m51 -4 c3 -3 -4 -5 -14 -6 -11 -1 -20 2
-20 7 0 8 25 8 34 -1z m2284 -14 c-3 -3 -9 2 -12 12 -6 14 -5 15 5 6 7 -7 10
-15 7 -18z m26 9 c3 -8 2 -12 -4 -9 -6 3 -10 10 -10 16 0 14 7 11 14 -7z m511
1 c0 -4 -8 -9 -18 -11 -9 -1 -15 2 -11 7 8 13 -10 11 -26 -3 -12 -11 -12 -10
-1 4 13 17 56 19 56 3z m-3121 -83 c3 -5 -1 -9 -9 -9 -8 0 -12 4 -9 9 3 4 7 8
9 8 2 0 6 -4 9 -8z m1183 -77 c0 -8 -4 -12 -9 -9 -5 3 -6 10 -3 15 9 13 12 11
12 -6z m127 -74 c3 -5 -1 -11 -9 -14 -9 -4 -12 -1 -8 9 6 16 10 17 17 5z
m2326 5 c0 -3 -4 -8 -10 -11 -5 -3 -10 -1 -10 4 0 6 5 11 10 11 6 0 10 -2 10
-4z m310 -331 c7 -9 8 -15 2 -15 -5 0 -12 7 -16 15 -3 8 -4 15 -2 15 2 0 9 -7
16 -15z m137 -249 c0 -8 -6 -12 -15 -9 -11 5 -11 7 0 14 7 5 13 9 14 9 0 0 1
-6 1 -14z m-4894 -286 c-3 -12 -8 -19 -11 -16 -5 6 5 36 12 36 2 0 2 -9 -1
-20z m4967 -14 c0 -3 -4 -8 -10 -11 -5 -3 -10 -1 -10 4 0 6 5 11 10 11 6 0 10
-2 10 -4z m0 -480 c0 -3 -4 -8 -10 -11 -5 -3 -10 -1 -10 4 0 6 5 11 10 11 6 0
10 -2 10 -4z m-40 -240 c-7 -7 -13 -7 -20 0 -6 6 -3 10 10 10 13 0 16 -4 10
-10z m-10 -30 c0 -23 -16 -27 -17 -5 -1 10 2 19 8 19 5 0 9 -6 9 -14z m-123
-291 c0 -8 -4 -12 -9 -9 -5 3 -6 10 -3 15 9 13 12 11 12 -6z m-269 -450 c-3
-3 -9 2 -12 12 -6 14 -5 15 5 6 7 -7 10 -15 7 -18z m-244 -271 c3 -8 2 -12 -4
-9 -6 3 -10 10 -10 16 0 14 7 11 14 -7z m-197 -209 c0 -8 -4 -12 -9 -9 -5 3
-6 10 -3 15 9 13 12 11 12 -6z m-2033 -1023 c3 -5 -1 -9 -9 -9 -8 0 -12 4 -9
9 3 4 7 8 9 8 2 0 6 -4 9 -8z m290 -240 c2 -4 -5 -9 -17 -9 -17 -2 -19 0 -7 7
18 12 18 12 24 2z"/>
<path d="M3640 5030 c-9 -6 -10 -10 -3 -10 6 0 15 5 18 10 8 12 4 12 -15 0z"/>
<path d="M1210 4989 c0 -5 5 -7 10 -4 6 3 10 8 10 11 0 2 -4 4 -10 4 -5 0 -10
-5 -10 -11z"/>
<path d="M371 4243 c-7 -8 -11 -16 -8 -19 2 -2 10 2 17 11 17 20 9 27 -9 8z"/>
<path d="M335 4140 c3 -5 8 -10 11 -10 2 0 4 5 4 10 0 6 -5 10 -11 10 -5 0 -7
-4 -4 -10z"/>
<path d="M5256 3298 c3 -5 10 -6 15 -3 13 9 11 12 -6 12 -8 0 -12 -4 -9 -9z"/>
<path d="M4854 2462 c0 -10 6 -19 13 -19 8 0 9 6 2 19 -5 10 -11 18 -12 18 -2
0 -3 -8 -3 -18z"/>
<path d="M737 2423 c-4 -3 -7 -11 -7 -17 0 -6 5 -5 12 2 6 6 9 14 7 17 -3 3
-9 2 -12 -2z"/>
<path d="M975 2140 c-3 -5 -1 -10 4 -10 6 0 11 5 11 10 0 6 -2 10 -4 10 -3 0
-8 -4 -11 -10z"/>
<path d="M1126 1977 c3 -10 9 -15 12 -12 3 3 0 11 -7 18 -10 9 -11 8 -5 -6z"/>
<path d="M1240 1860 c0 -13 18 -22 24 -11 3 5 -1 11 -9 15 -8 3 -15 1 -15 -4z"/>
<path d="M4180 1731 c0 -5 5 -13 10 -16 6 -3 10 -2 10 4 0 5 -4 13 -10 16 -5
3 -10 2 -10 -4z"/>
<path d="M4100 1650 c-13 -8 -12 -10 3 -10 9 0 17 5 17 10 0 12 -1 12 -20 0z"/>
<path d="M3607 1219 c7 -7 15 -10 18 -7 3 3 -2 9 -12 12 -14 6 -15 5 -6 -5z"/>
</g>
</svg>
