<svg xmlns="http://www.w3.org/2000/svg" height="240" width="1056">
  <defs>
    <clipPath id="a">
      <path d="M0 180h792V0H0z"/>
    </clipPath>
  </defs>
  <g clip-path="url(#a)" transform="matrix(1.33333 0 0 -1.33333 0 240)" fill="#231f20">
    <path d="M263.212 124.13H218.39v-6.226h18.557v-42.04h7.708v42.04h18.558zm5.387 0V75.866h7.71v20.949h3.22c3.933 0 7.16-1.134 14.234-11.04l7.078-9.91h9.201c-3.696 4.603-5.034 6.229-7.315 9.555-4.089 6.016-7.076 10.477-11.95 13.377 5.74 2.052 8.963 6.227 8.963 11.818 0 8.352-6.762 13.517-17.614 13.517zm7.71-5.943h4.952c7.472 0 10.458-2.76 10.536-7.29.081-4.034-2.279-7.856-10.536-7.856h-4.953zm68.062 5.944H313.94V75.865h31.14v6.228h-23.434v15.003h21.94v6.229h-21.94v14.579h22.726zm36.318 0h-30.434V75.865h31.141v6.228h-23.433v15.003h21.94v6.229h-21.94v14.579h22.726zm50.145 0h-44.82v-6.227h18.555v-42.04h7.707v42.04h18.558zm99.41.282h-5.425L501.78 75.865h7.862l6.762 14.226h22.804l7.157-14.226h7.864zm-2.829-10.614l8.65-17.48h-16.67zm30.317 10.332V75.865h7.703v20.877h8.025c12.421 0 18.084 5.945 18.084 13.518 0 7.644-5.349 13.87-17.064 13.87zm7.703-6.227h9.045c7 0 9.121-3.822 9.121-7.36 0-4.812-3.697-7.573-9.435-7.573h-8.73zm38.577 6.227h-7.707V75.865h7.707zm51.132 0h-44.817v-6.227h18.557v-42.04h7.707v42.04h18.553zm16.952.282h-5.423L643.63 75.865h7.864l6.765 14.226h22.802l7.158-14.226h7.865zm-2.83-10.614l8.651-17.48h-16.673zm38.338 10.332H699.9V75.865h31.927v6.228h-24.222zm-207.907 4.299c-7.834 3.23-13.815 4.64-19.713 4.64-18.279 0-31.505-12.597-31.505-29.836 0-11.852 9.433-28.178 31.003-28.178 9.013 0 15.161 2.072 20.806 4.972v8.868c-6.486-4.143-13.564-6.382-20.05-6.382-13.816 0-23.252 8.787-23.252 21.467 0 12.431 9.773 21.63 22.914 21.63 6.655 0 12.722-1.824 19.797-5.885zm-285.457 2.663c-4.575 2.745-9.532 4.118-14.49 4.118-11.913 0-19.73-6.092-19.73-15.612 0-16.042 28.12-17.415 28.12-29.513 0-3.26-3.337-7.377-10.581-7.377-6.384 0-12.391 3.004-17.157 8.493V80.566c5.433-3.69 11.15-5.404 18.206-5.404 10.486 0 18.207 6.69 18.207 15.868 0 18.616-28.12 18.446-28.12 29.684 0 4.116 4.289 6.948 10.294 6.948 4.384 0 9.724-1.374 15.25-6.09zm235.841-91.485h4.304c4.302 0 5.431 2.071 5.431 3.761 0 1.825-1.098 3.814-6.133 3.814h-3.602zm0 8.773h2.228c4.211 0 5.676 1.5 5.676 3.706 0 2.834-2.503 3.706-5.737 3.706h-2.167zm2.716 8.61c5.616 0 6.928-2.643 6.928-4.794 0-1.854-.946-3.134-2.99-4.143 3.173-.598 4.821-2.233 4.821-4.713 0-3.05-2.746-4.93-6.989-4.93h-6.103v18.58zm20.613-2.206l-4.457-8.746h8.942zm10.07-16.375h-1.678l-3.296 6.43h-10.163l-3.296-6.43h-1.678l9.612 18.718h.886zm22.764 0h-1.343l-15.808 16.24V38.41h-1.618v18.581h1.373l15.778-16.237v16.237h1.618zm9.928 9.318l10.864-9.318h-2.045l-10.894 9.319V38.41h-1.617v18.582h1.617v-9.263l9.979 9.263h2.014zm32.193 8.174c-5.219 0-9.309-3.569-9.309-8.2 0-4.633 4.09-8.2 9.31-8.2 5.217 0 9.245 3.567 9.245 8.2 0 4.631-4.028 8.2-9.246 8.2m-.062-17.737c-6.164 0-10.986 4.196-10.986 9.536s4.822 9.535 10.986 9.535c6.196 0 11.048-4.195 11.048-9.535s-4.852-9.536-11.048-9.536m26.163 17.628h-9.095v-7.056h8.209v-1.2h-8.21V38.41h-1.616v18.581h10.712zm29.454-1.69c-2.595 1.227-4.944 1.8-7.416 1.8-5.188 0-9.095-3.516-9.095-8.23 0-4.795 3.876-8.173 9.309-8.173 2.349 0 4.577.572 7.415 1.907V39.91c-2.41-1.145-4.974-1.744-7.385-1.744-6.348 0-11.078 4.059-11.078 9.508 0 5.695 5.219 9.563 10.926 9.563 2.319 0 4.79-.517 7.324-1.552zm13.945.682l-4.456-8.746h8.942zm10.07-16.375h-1.677l-3.296 6.43H612.8l-3.296-6.43h-1.679l9.613 18.718h.886zm22.765 0h-1.343L633.55 54.65V38.41h-1.618v18.581h1.373l15.778-16.237v16.237h1.618zm14.034 16.375l-4.456-8.746h8.942zm10.071-16.375h-1.678l-3.296 6.43h-10.163l-3.296-6.43h-1.678l9.612 18.718h.886zm5.642 1.198h5.86c5.004 0 9.43 2.862 9.43 8.093 0 4.768-3.876 8.092-9.52 8.092h-5.77zm5.677 17.383c8.85 0 11.352-5.203 11.352-9.29 0-4.305-2.838-9.29-11.078-9.29h-7.568v18.58zm22.242-2.206l-4.456-8.746h8.941zm10.07-16.375h-1.678l-3.296 6.43H703.3l-3.296-6.43h-1.679l9.613 18.718h.885zm5.946 18.282v-.526h-2.692v-7.642h-.56v7.642h-2.693v.526zm4.156-3.792l2.728 3.792h.56v-8.168h-.559v7.244l-2.73-3.817-2.742 3.817v-7.244h-.556v8.168h.556zM131.375 99.79s-5.925 8.268-22.978 4.797l-13.423-3.735s-15.359-3.599-18.998 5.61c0 0-2.537 5.377 5.514 10.765 0 0 8.795 5.733 18.346 9.689 0 0 5.722 2.839 17.892 7.114l12.46 4a50.564 50.564 0 0 1-19.255 3.805c-28.034 0-50.76-22.726-50.76-50.76 0-12.976 4.91-24.778 12.922-33.752 3.285 1.756 39.917 21.349 43.075 23.666 0 0 19.162 11.674 15.205 18.801"/>
    <path d="M132.753 136.852c-3.375-1.348-21.87-8.868-36.604-17.654 0 0-12.79-6.37-10.566-10.915 0 0 1.519-3.137 7.735-1.063 0 0 11.313 4.327 27.494 4.193 0 0 20.218.606 30.124-11.42 0 0 9.703-8.796-2.326-25.07 0 0-9.4-13.342-30.122-25.27l-14.322-8.835c2.219-.297 4.467-.503 6.768-.503 28.033 0 50.759 22.725 50.759 50.76 0 20.211-11.842 37.611-28.94 45.777"/>
  </g>
</svg>