<svg xmlns="http://www.w3.org/2000/svg" height="240" width="1056">
  <defs>
    <clipPath id="a">
      <path d="M0 180h792V0H0z"/>
    </clipPath>
  </defs>
  <g clip-path="url(#a)" transform="matrix(1.33333 0 0 -1.33333 0 240)" fill="#231f20">
    <path d="M263.2 124.1h-44.8V118h18.5V76h7.8v42h18.5zm5.4 0V76h7.7v21h3.2c4 0 7.2-1.2 14.3-11.1l7-10h9.2c-3.7 4.7-5 6.3-7.3 9.6-4 6-7 10.5-12 13.4 5.8 2 9 6.2 9 11.8 0 8.4-6.7 13.5-17.6 13.5zm7.7-6h5c7.4 0 10.4-2.7 10.5-7.2 0-4-2.3-7.9-10.5-7.9h-5zm68 6H314V76h31.2v6h-23.5v15h22v6.2h-22V118h22.8zm36.4 0h-30.4V76h31.1v6H358v15h21.9v6.2h-22V118h22.8zm50.1 0H386V118h18.6V76h7.7v42h18.5zm99.4.3h-5.4l-23-48.5h7.8l6.8 14.2h22.8l7.2-14.2h7.8zm-2.8-10.6l8.7-17.5h-16.7zm30.3 10.3V76h7.7v20.8h8c12.5 0 18.1 6 18.1 13.6s-5.3 13.8-17 13.8zm7.7-6.2h9c7 0 9.2-3.8 9.2-7.4 0-4.8-3.7-7.5-9.4-7.5h-8.8zm38.6 6.2h-7.7V76h7.7zm51.1 0h-44.8V118H629V76h7.7v42H655zm17 .3h-5.4l-23-48.5h7.8l6.8 14.2H681l7.1-14.2h7.9zm-2.8-10.6l8.6-17.5h-16.7zm38.3 10.3h-7.7V76h32v6h-24.3zm-207.9 4.3a50.7 50.7 0 0 1-19.7 4.7c-18.3 0-31.5-12.6-31.5-29.9 0-11.8 9.4-28.1 31-28.1 9 0 15.1 2 20.8 5v8.8a38 38 0 0 0-20-6.4c-13.9 0-23.3 8.8-23.3 21.5 0 12.4 9.8 21.6 22.9 21.6 6.7 0 12.7-1.8 19.8-5.9zm-285.5 2.7a28 28 0 0 1-14.5 4.1c-11.9 0-19.7-6-19.7-15.6 0-16 28.1-17.4 28.1-29.5 0-3.3-3.3-7.4-10.5-7.4-6.4 0-12.4 3-17.2 8.5V80.6a30.8 30.8 0 0 1 18.2-5.4c10.5 0 18.2 6.7 18.2 15.8 0 18.6-28.1 18.5-28.1 29.7 0 4.1 4.3 7 10.3 7a23 23 0 0 0 15.2-6.1zm235.9-91.5h4.3c4.3 0 5.4 2 5.4 3.8 0 1.8-1 3.8-6.1 3.8H450zm0 8.8h2.2c4.2 0 5.7 1.5 5.7 3.7 0 2.8-2.5 3.7-5.8 3.7h-2.1zm2.7 8.6c5.6 0 7-2.7 7-4.8 0-1.9-1-3.1-3-4.1 3.1-.6 4.8-2.3 4.8-4.8 0-3-2.8-4.9-7-4.9h-6.1V57zm20.6-2.2L469 46h8.9zm10-16.4h-1.6l-3.3 6.4h-10.2l-3.3-6.4h-1.6l9.6 18.7h.9zm22.8 0H505l-15.8 16.3V38.4h-1.6V57h1.3l15.8-16.2V57h1.6zm10 9.3l10.8-9.3h-2l-11 9.3v-9.3h-1.6V57h1.6v-9.3l10 9.3h2zm32.2 8.2c-5.3 0-9.3-3.6-9.3-8.2s4-8.2 9.3-8.2c5.2 0 9.2 3.6 9.2 8.2s-4 8.2-9.2 8.2m-.1-17.7c-6.2 0-11 4.2-11 9.5s4.8 9.5 11 9.5 11-4.2 11-9.5-4.8-9.5-11-9.5m26.2 17.6h-9.1v-7h8.2v-1.3h-8.2v-9h-1.6V57h10.7zm29.4-1.7c-2.6 1.2-5 1.8-7.4 1.8-5.2 0-9-3.5-9-8.2 0-4.8 3.8-8.2 9.2-8.2 2.4 0 4.6.6 7.4 2v-1.6c-2.4-1.1-5-1.7-7.4-1.7-6.3 0-11 4-11 9.5 0 5.7 5.2 9.5 10.9 9.5 2.3 0 4.8-.5 7.3-1.5zm14 .7l-4.5-8.8h9zm10-16.4h-1.6l-3.3 6.4h-10.2l-3.3-6.4h-1.7l9.6 18.7h1zm22.8 0h-1.3l-15.9 16.3V38.3H632V57h1.4l15.8-16.2V57h1.6zm14 16.4l-4.4-8.8h9zm10.1-16.4h-1.7l-3.3 6.4h-10.1l-3.3-6.4h-1.7l9.6 18.7h.9zm5.6 1.2h6c5 0 9.3 2.9 9.3 8.1 0 4.8-3.8 8-9.5 8h-5.8zm5.7 17.4c8.9 0 11.4-5.2 11.4-9.3 0-4.3-2.9-9.3-11.1-9.3h-7.6V57zm22.3-2.2l-4.5-8.8h9zm10-16.4h-1.6l-3.3 6.4h-10.2l-3.3-6.4h-1.7l9.6 18.7h1zm6 18.3v-.5h-2.7v-7.7h-.6v7.7h-2.7v.5zm4.1-3.8l2.8 3.8h.5v-8.2h-.5v7.3l-2.8-3.8-2.7 3.8v-7.3h-.6v8.2h.6zM131.4 99.8s-6 8.3-23 4.8L95 100.9s-15.4-3.6-19 5.6c0 0-2.6 5.3 5.5 10.7a176.6 176.6 0 0 0 36.2 16.8l12.5 4a50.6 50.6 0 0 1-19.3 3.8 50.8 50.8 0 0 1-37.8-84.5c3.3 1.8 40 21.4 43 23.7 0 0 19.2 11.7 15.3 18.8"/>
    <path d="M132.8 136.9A293 293 0 0 1 96 119.2s-12.7-6.4-10.5-11c0 0 1.5-3 7.7-1 0 0 11.3 4.3 27.5 4.2 0 0 20.2.6 30.1-11.4 0 0 9.7-8.8-2.3-25 0 0-9.4-13.4-30.1-25.3l-14.3-8.9a50.8 50.8 0 0 1 28.6 96"/>
  </g>
</svg>